<svg xmlns="http://www.w3.org/2000/svg" xmlns:xlink="http://www.w3.org/1999/xlink" aria-hidden="true" role="img" class="iconify iconify--ph" width="32" height="32" preserveAspectRatio="xMidYMid meet" viewBox="0 0 256 256"><path d="M128 32a96 96 0 0 0-64.2 167.4A72 72 0 0 1 128 160a40 40 0 1 1 40-40a40 40 0 0 1-40 40a72 72 0 0 1 64.2 39.4A96 96 0 0 0 128 32z" opacity=".2" fill="currentColor"></path><path d="M168 56a8 8 0 0 1 8-8h16V32a8 8 0 0 1 16 0v16h16a8 8 0 0 1 0 16h-16v16a8 8 0 0 1-16 0V64h-16a8 8 0 0 1-8-8zm62.7 55.6A99.8 99.8 0 0 1 232 128a103.7 103.7 0 0 1-33.8 76.7l-1.3 1.2a104 104 0 0 1-137.8 0l-1.3-1.2A104 104 0 0 1 128 24a99.8 99.8 0 0 1 16.4 1.3a8 8 0 0 1-2.5 15.8A92 92 0 0 0 128 40a88 88 0 0 0-65.8 146.4a79.2 79.2 0 0 1 36.1-28.7a48 48 0 1 1 59.4 0a79.2 79.2 0 0 1 36.1 28.7A87.6 87.6 0 0 0 216 128a92 92 0 0 0-1.1-13.9a8 8 0 0 1 15.8-2.5zM128 152a32 32 0 1 0-32-32a32.1 32.1 0 0 0 32 32zm0 64a87.4 87.4 0 0 0 53.9-18.5a64 64 0 0 0-107.8 0A87.4 87.4 0 0 0 128 216z" fill="currentColor"></path></svg>